<?xml version="1.0" encoding="UTF-8" standalone="no"?>
<svg xmlns="http://www.w3.org/2000/svg"
     xmlns:xlink="http://www.w3.org/1999/xlink"
     width="1562px" height="890px" viewBox="0 0 1562 890">
<title>persp3dd.svg</title>
<desc>
Creator: GL2PS 1.3.8, (C) 1999-2012 C. Geuzaine
For: Generated by rgl
CreationDate: Thu Nov 30 16:57:18 2017
</desc>
<defs>
</defs>
<g shape-rendering="crispEdges">
<polygon fill="#255624" points="791.756,339.329 788.609,338.658 791.386,338.947"/>
<polygon fill="#3b8839" points="791.463,337.804 790.304,338.254 790.502,337.45"/>
<polygon fill="#40923d" points="795.249,335.853 796.967,336.198 795.291,335.528"/>
<polygon fill="#40923d" points="797.533,336.311 795.291,335.528 796.967,336.198"/>
<polygon fill="#40923d" points="797.533,336.311 795.297,335.479 795.291,335.528"/>
<polygon fill="#3b8839" points="791.861,336.793 790.795,337.446 790.918,336.953"/>
<polygon fill="#060e06" points="790.767,337.571 791.137,336.102 790.77,337.55"/>
<polygon fill="#3b8839" points="791.149,336.024 790.795,337.446 790.502,337.45"/>
<polygon fill="#3b8839" points="790.502,337.45 790.849,336.047 791.149,336.024"/>
<polygon fill="#40923d" points="794.023,335.552 793.956,335.585 794.959,335.684"/>
<polygon fill="#40923d" points="794.493,335.325 794.41,335.365 794.959,335.684"/>
<polygon fill="#40923d" points="794.493,335.325 794.959,335.684 795.267,335.715"/>
<polygon fill="#40923d" points="794.41,335.365 794.023,335.552 794.959,335.684"/>
<polygon fill="#40923d" points="794.663,335.243 795.291,335.528 795.297,335.479"/>
<polygon fill="#40923d" points="794.663,335.243 794.624,335.262 795.291,335.528"/>
<polygon fill="#40923d" points="795.291,335.528 794.624,335.262 794.493,335.325"/>
<polygon fill="#40923d" points="795.291,335.528 794.493,335.325 795.267,335.715"/>
<polygon fill="#071007" points="790.5,337.481 790.91,335.861 790.5,337.479"/>
<polygon fill="#071007" points="790.5,337.479 790.91,335.861 790.917,335.773"/>
<polygon fill="#071007" points="790.5,337.479 790.917,335.773 790.502,337.45"/>
<polygon fill="#071007" points="790.91,335.861 790.911,335.856 790.917,335.773"/>
<text fill="#000000" x="793.302" y="274.986" font-size="12" text-anchor="start" baseline-shift="0" font-family="Helvetica">FFS</text>
<polygon fill="#41953f" points="793.16,335.292 793.081,334.829 791.245,334.609"/>
<polygon fill="#41953f" points="793.16,335.292 791.245,334.609 793.126,335.375"/>
<polyline fill="none" stroke="#0000ff" stroke-width="1" points="794.404,334.521 810.474,310.719"/>
<polygon fill="#40923d" points="794.41,335.365 793.11,335.424 794.023,335.552"/>
<polygon fill="#40923d" points="794.624,335.262 793.378,334.764 794.493,335.325"/>
<polygon fill="#40923d" points="794.493,335.325 793.378,334.764 794.41,335.365"/>
<polygon fill="#40923d" points="794.41,335.365 793.378,334.764 793.11,335.424"/>
<polygon fill="#40923d" points="794.023,335.552 793.869,335.576 793.956,335.585"/>
<polygon fill="#40923d" points="794.663,335.243 793.378,334.764 794.624,335.262"/>
<polygon fill="#40923d" points="794.023,335.552 793.11,335.424 793.869,335.576"/>
<polygon fill="#41953f" points="793.16,335.292 793.126,335.375 793.177,335.396"/>
<polyline fill="none" stroke="#0000ff" stroke-width="1" points="793.744,335.5 794.404,334.521"/>
<polygon fill="#40923d" points="795.267,335.715 794.959,335.684 795.249,335.853"/>
<polygon fill="#40923d" points="794.959,335.684 793.869,335.576 795.249,335.853"/>
<text fill="#000000" x="778.135" y="395.867" font-size="12" text-anchor="start" baseline-shift="0" font-family="Helvetica">M4</text>
<text fill="#000000" x="481.812" y="386.185" font-size="12" text-anchor="start" baseline-shift="0" font-family="Helvetica">Fy</text>
<text fill="#000000" x="884.301" y="395.979" font-size="12" text-anchor="start" baseline-shift="0" font-family="Helvetica">X</text>
<text fill="#000000" x="785.98" y="353.69" font-size="12" text-anchor="start" baseline-shift="0" font-family="Helvetica">M1</text>
<text fill="#000000" x="783.765" y="355.343" font-size="12" text-anchor="start" baseline-shift="0" font-family="Helvetica">M0</text>
<text fill="#000000" x="648.751" y="326.805" font-size="12" text-anchor="start" baseline-shift="0" font-family="Helvetica">M3</text>
<text fill="#000000" x="908.974" y="389.314" font-size="12" text-anchor="start" baseline-shift="0" font-family="Helvetica">M5</text>
<polyline fill="none" stroke="#ff0000" stroke-width="1" points="792.913,337.683 795.872,339.325"/>
<polygon fill="#3c8839" points="796.436,340.174 795.289,338.731 795.934,339.988"/>
<polygon fill="#3c8839" points="795.289,338.731 796.483,340.192 796.053,338.8"/>
<polygon fill="#3c8839" points="795.903,339.976 795.116,338.747 795.868,339.963"/>
<polygon fill="#3c8839" points="795.903,339.976 795.934,339.988 795.289,338.731"/>
<polygon fill="#3c8839" points="795.289,338.731 795.155,338.719 795.117,338.747"/>
<polygon fill="#3c8839" points="795.289,338.731 795.117,338.747 795.903,339.976"/>
<polygon fill="#3c8839" points="794.72,339.041 795.676,339.892 795.113,338.75"/>
<polygon fill="#3c8839" points="795.289,338.731 796.436,340.174 796.483,340.192"/>
<polygon fill="#3c8839" points="795.116,338.747 795.676,339.892 795.868,339.963"/>
<polygon fill="#3c8839" points="794.711,339.048 795.526,339.836 795.676,339.892"/>
<polygon fill="#3c8839" points="794.711,339.048 795.676,339.892 794.72,339.041"/>
<polygon fill="#3c8839" points="794.711,339.048 794.465,339.229 795.526,339.836"/>
<polygon fill="#668d28" points="795.631,339.624 794.484,339.534 794.448,340.263"/>
<polygon fill="#668d28" points="795.837,339.701 794.448,340.263 794.423,340.757"/>
<polygon fill="#668d28" points="795.631,339.624 795.047,339.407 794.484,339.534"/>
<polygon fill="#668d28" points="795.528,342.113 795.837,339.701 794.423,340.757"/>
<polygon fill="#668d28" points="795.047,339.407 794.5,339.203 794.484,339.534"/>
<polygon fill="#668d28" points="795.528,342.113 796.395,339.909 795.837,339.701"/>
<polygon fill="#668d28" points="795.837,339.701 795.631,339.624 794.448,340.263"/>
<polygon fill="#3c8839" points="795.155,338.719 795.095,338.713 795.117,338.747"/>
<polygon fill="#3c8839" points="795.116,338.747 795.095,338.713 795.113,338.75"/>
<polygon fill="#163215" points="794.619,339 794.586,338.923 794.523,339.413"/>
<polygon fill="#163215" points="794.543,338.823 794.519,339.352 794.579,338.907"/>
<polygon fill="#163215" points="794.579,338.907 794.519,339.352 794.523,339.413"/>
<polygon fill="#163215" points="794.579,338.907 794.523,339.413 794.586,338.923"/>
<polygon fill="#163215" points="794.619,339 794.523,339.413 794.552,339.781"/>
<polygon fill="#163215" points="794.653,339.078 794.572,340.049 794.59,340.291"/>
<polygon fill="#163215" points="794.638,339.045 794.619,339 794.552,339.781"/>
<polygon fill="#163215" points="794.638,339.045 794.552,339.781 794.572,340.049"/>
<polygon fill="#163215" points="794.653,339.078 794.638,339.045 794.572,340.049"/>
<polygon fill="#3c8839" points="794.749,338.682 794.542,338.835 794.548,338.848"/>
<polygon fill="#3c8839" points="795.095,338.713 794.575,338.912 794.72,339.041"/>
<polygon fill="#3c8839" points="794.579,338.921 794.636,339.053 794.711,339.048"/>
<polygon fill="#3c8839" points="794.652,339.091 794.711,339.048 794.636,339.053"/>
<polygon fill="#3c8839" points="794.72,339.041 795.113,338.75 795.095,338.713"/>
<polygon fill="#3c8839" points="794.749,338.682 794.548,338.848 795.095,338.713"/>
<polygon fill="#3c8839" points="794.72,339.041 794.579,338.921 794.711,339.048"/>
<polygon fill="#3c8839" points="795.095,338.713 794.548,338.848 794.575,338.912"/>
<polygon fill="#163215" points="794.591,337.763 794.375,337.47 794.519,339.352"/>
<polygon fill="#3c8839" points="794.466,338.657 794.542,338.835 794.749,338.682"/>
<polygon fill="#668d28" points="794.879,343.76 793.136,339.177 793.465,341.441"/>
<polygon fill="#668d28" points="793.465,341.441 794.039,343.224 794.879,343.76"/>
<polygon fill="#668d28" points="794.879,343.76 793.591,339.735 793.136,339.177"/>
<polygon fill="#668d28" points="793.591,339.736 794.879,343.76 795.528,342.113"/>
<polygon fill="#163215" points="794.572,340.049 794.323,342.428 794.39,342.81"/>
<polygon fill="#163215" points="794.323,342.428 794.552,339.781 794.523,339.413"/>
<polygon fill="#163215" points="794.323,342.428 794.523,339.413 794.218,341.828"/>
<polygon fill="#163215" points="794.523,339.413 794.375,337.47 794.132,337.14"/>
<polygon fill="#163215" points="794.523,339.413 794.132,337.14 794.218,341.828"/>
<polygon fill="#163215" points="794.59,340.291 794.572,340.049 794.39,342.81"/>
<polygon fill="#163215" points="794.59,340.291 794.39,342.81 794.445,343.125"/>
<polygon fill="#163215" points="794.572,340.049 794.552,339.781 794.323,342.428"/>
<polygon fill="#40923d" points="795.849,338.137 795.927,336.526 795.042,336.179"/>
<polygon fill="#40923d" points="795.849,338.137 795.042,336.179 794.527,337.645"/>
<polygon fill="#40923d" points="795.927,336.526 795.944,336.188 795.042,336.179"/>
<polygon fill="#40923d" points="795.944,336.188 795.953,335.995 795.163,335.836"/>
<polygon fill="#40923d" points="795.944,336.188 795.163,335.836 795.042,336.179"/>
<polygon fill="#3c8839" points="796.053,338.8 795.891,338.273 794.462,337.691"/>
<polygon fill="#3c8839" points="795.873,338.215 794.527,337.645 794.462,337.691"/>
<polygon fill="#3c8839" points="795.873,338.215 795.849,338.137 794.527,337.645"/>
<polygon fill="#3c8839" points="796.053,338.8 794.462,337.691 795.289,338.731"/>
<polygon fill="#3c8839" points="795.891,338.273 795.873,338.215 794.462,337.691"/>
<polygon fill="#3c8839" points="794.34,338.363 794.462,337.691 794.146,337.911"/>
<polygon fill="#3c8839" points="794.466,338.657 795.095,338.713 794.462,337.691"/>
<polygon fill="#3c8839" points="794.466,338.657 794.462,337.691 794.34,338.363"/>
<polygon fill="#3c8839" points="795.289,338.731 794.462,337.691 795.095,338.713"/>
<polygon fill="#668d28" points="794.189,345.513 794.879,343.76 794.294,343.386"/>
<polygon fill="#163215" points="794.362,344.756 794.445,343.125 794.39,342.81"/>
<polygon fill="#163215" points="794.218,341.828 794.246,343.33 794.323,342.428"/>
<polygon fill="#163215" points="794.362,344.756 794.39,342.81 794.27,344.645"/>
<polygon fill="#163215" points="794.39,342.81 794.323,342.428 794.246,343.33"/>
<polygon fill="#163215" points="794.39,342.81 794.246,343.33 794.27,344.645"/>
<polygon fill="#668d28" points="794.446,344.859 794.093,345.756 794.395,345.849"/>
<polygon fill="#668d28" points="794.318,347.306 794.395,345.849 794.093,345.756"/>
<polygon fill="#163215" points="794.27,344.645 794.295,346.055 794.362,344.756"/>
<polygon fill="#010201" points="885.407,367.256 885.472,365.948 885.347,367.33"/>
<polygon fill="#010201" points="885.347,367.33 885.472,365.948 884.298,368.624"/>
<polygon fill="#010201" points="883.239,369.931 883.376,367.432 882.619,370.696"/>
<polygon fill="#010201" points="885.492,365.542 883.376,367.432 883.239,369.931"/>
<polygon fill="#010201" points="882.619,370.696 883.376,367.432 881.759,371.758"/>
<polygon fill="#010201" points="884.298,368.624 885.472,365.948 885.492,365.542"/>
<polygon fill="#010201" points="885.492,365.542 885.532,364.738 883.376,367.432"/>
<polygon fill="#010201" points="884.298,368.624 885.492,365.542 883.239,369.931"/>
<polygon fill="#668d28" points="796.744,339.024 794.395,345.849 911.917,381.901"/>
<polygon fill="#668d28" points="794.318,347.306 911.917,381.901 794.395,345.849"/>
<polygon fill="#668d28" points="794.318,347.306 794.815,350.716 911.917,381.901"/>
<polygon fill="#668d28" points="796.744,339.024 794.446,344.859 794.395,345.849"/>
<polygon fill="#3c8839" points="795.891,338.273 883.799,370.882 795.873,338.215"/>
<polygon fill="#3c8839" points="836.42,354.808 795.891,338.273 796.395,339.909"/>
<polygon fill="#3c8839" points="883.131,372.196 883.799,370.882 848.998,359.49"/>
<polygon fill="#3c8839" points="848.999,359.49 883.799,370.882 795.891,338.273"/>
<polygon fill="#3c8839" points="848.999,359.49 795.891,338.273 836.42,354.808"/>
<polygon fill="#3c8839" points="795.873,338.215 883.799,370.882 795.849,338.137"/>
<polygon fill="#010201" points="883.07,374.184 883.456,372.436 883.104,372.912"/>
<polygon fill="#010201" points="883.07,374.184 883.104,372.912 883.054,374.215"/>
<polygon fill="#010201" points="883.456,372.436 883.799,370.882 883.104,372.912"/>
<polygon fill="#010201" points="883.104,372.912 883.799,370.882 883.113,372.678"/>
<polygon fill="#010201" points="883.113,372.678 883.799,370.882 883.131,372.196"/>
<polygon fill="#40923d" points="795.927,336.526 883.799,370.882 796.967,336.198"/>
<polygon fill="#40923d" points="795.927,336.526 796.967,336.198 795.944,336.188"/>
<polygon fill="#40923d" points="795.944,336.188 796.967,336.198 795.953,335.995"/>
<polygon fill="#40923d" points="796.967,336.198 883.799,370.882 884.298,368.624"/>
<polygon fill="#40923d" points="796.967,336.198 884.298,368.624 797.533,336.311"/>
<polygon fill="#40923d" points="795.849,338.137 883.799,370.882 795.927,336.526"/>
<polygon fill="#010201" points="884.298,368.624 883.799,370.882 885.084,370.238"/>
<polygon fill="#010201" points="885.309,369.209 885.407,367.256 885.347,367.33"/>
<polygon fill="#010201" points="885.309,369.209 885.347,367.33 885.084,370.238"/>
<polygon fill="#010201" points="885.347,367.33 884.298,368.624 885.084,370.238"/>
<polygon fill="#010201" points="883.07,374.184 885.084,370.238 883.456,372.436"/>
<polygon fill="#010201" points="883.456,372.436 885.084,370.238 883.799,370.882"/>
<polygon fill="#3e8e3c" points="885.309,369.21 885.084,370.238 911.917,381.901"/>
<polygon fill="#3e8e3c" points="885.309,369.21 911.917,381.901 897.405,371.33"/>
<polygon fill="#3a8438" points="885.084,370.238 880.939,378.359 911.917,381.901"/>
<polygon fill="#6e982c" points="825.5,631.13 959.5,621.296 948.51,583.37"/>
<polygon fill="#6e982c" points="825.5,631.13 823.639,601.662 948.51,583.37"/>
<polygon fill="#6e982c" points="825.5,631.13 826.499,646.951 959.5,621.296"/>
<polygon fill="#668d28" points="911.917,381.901 936.058,450.176 898.421,396.228"/>
<polygon fill="#668d28" points="921.459,474.694 936.058,450.176 898.421,396.228"/>
<polygon fill="#699129" points="806.502,432.3 811.621,476.88 921.459,474.694"/>
<polygon fill="#6b932a" points="948.51,583.37 974.284,572.257 963.644,541.237"/>
<polygon fill="#6b932a" points="948.51,583.37 974.284,572.257 959.5,621.296"/>
<polygon fill="#668d28" points="797.854,371.841 795.894,358.136 898.421,396.228"/>
<polygon fill="#668d28" points="797.854,371.841 806.502,432.3 921.459,474.694"/>
<polygon fill="#668d28" points="797.854,371.841 898.421,396.228 921.459,474.694"/>
<polygon fill="#5c7f24" points="936.058,450.176 974.433,566.056 963.644,541.237"/>
<polygon fill="#5c7f24" points="943.77,466.98 974.433,566.056 936.058,450.176"/>
<polygon fill="#608426" points="986.232,600.036 974.284,572.257 974.433,566.056"/>
<polygon fill="#608426" points="963.644,541.237 974.284,572.257 974.433,566.056"/>
<polygon fill="#6a932a" points="819.211,555.682 948.51,583.37 921.459,474.694"/>
<polygon fill="#6a932a" points="819.211,555.682 823.639,601.662 948.51,583.37"/>
<polygon fill="#6a932a" points="819.211,555.682 811.621,476.88 921.459,474.694"/>
<polygon fill="#4e6c1f" points="943.77,466.98 936.058,450.176 917.479,393.593"/>
<polygon fill="#4e6c1f" points="911.917,381.901 936.058,450.176 917.479,393.593"/>
<polygon fill="#000000" points="943.77,466.98 951.578,488.93 917.479,393.593"/>
<polygon fill="#000000" points="922.671,408.209 951.578,488.93 917.479,393.593"/>
<polygon fill="#668d28" points="795.357,354.445 898.421,396.228 911.917,381.901"/>
<polygon fill="#668d28" points="794.815,350.716 795.357,354.445 911.917,381.901"/>
<polygon fill="#668d28" points="795.357,354.445 795.894,358.136 898.421,396.228"/>
<circle fill="#000000" cx="898.421" cy="396.228" r="1.5"/>
<circle fill="#bebebe" cx="898.421" cy="396.228" r="2.5"/>
<polygon fill="#729e2d" points="826.837,660.196 972.324,655.376 827.587,689.601"/>
<polygon fill="#729e2d" points="826.837,660.196 959.5,621.296 972.324,655.376"/>
<polygon fill="#729e2d" points="826.837,660.196 826.499,646.951 959.5,621.296"/>
<polygon fill="#577822" points="943.77,466.98 974.433,566.056 951.578,488.93"/>
<polygon fill="#577822" points="986.232,600.036 974.433,566.056 951.578,488.93"/>
<circle fill="#bebebe" cx="943.77" cy="466.98" r="2.5"/>
<circle fill="#000000" cx="943.77" cy="466.98" r="1.5"/>
<circle fill="#bebebe" cx="974.433" cy="566.056" r="2.5"/>
<circle fill="#000000" cx="974.433" cy="566.056" r="1.5"/>
<polygon fill="#255624" points="789.875,338.98 788.609,338.658 790.805,339.126"/>
<polygon fill="#255624" points="789.875,338.98 790.805,339.126 790.814,339.14"/>
<polygon fill="#479e44" points="785.568,336.322 788.272,338.587 783.763,336.877"/>
<polygon fill="#060e06" points="791.115,336.263 791.137,336.102 790.626,338.134"/>
<polygon fill="#060e06" points="791.115,336.263 790.626,338.134 790.618,338.205"/>
<polygon fill="#071007" points="790.889,336.05 790.91,335.861 790.303,338.256"/>
<polygon fill="#071007" points="790.889,336.05 790.303,338.256 790.298,338.336"/>
<polygon fill="#071007" points="790.9,336.006 790.91,335.861 790.898,336.015"/>
<polygon fill="#071007" points="790.901,336.001 790.911,335.856 790.91,335.861"/>
<polygon fill="#071007" points="790.901,336.001 790.91,335.861 790.9,336.006"/>
<polygon fill="#071007" points="790.901,336 790.911,335.856 790.901,336.001"/>
<polygon fill="#41953f" points="791.767,335.1 791.697,334.793 789.812,334.57"/>
<polygon fill="#41953f" points="788.935,334.332 788.991,334.347 791.245,334.609"/>
<polygon fill="#41953f" points="789.812,334.57 791.697,334.793 791.245,334.609"/>
<polygon fill="#41953f" points="789.812,334.57 791.245,334.609 788.99,334.347"/>
<polygon fill="#255624" points="790.568,339.098 790.872,339.234 789.875,338.98"/>
<polygon fill="#255624" points="787.058,338.502 789.875,338.98 790.872,339.234"/>
<polygon fill="#255624" points="787.058,338.502 790.872,339.234 739.043,333.657"/>
<polygon fill="#255624" points="742.04,334.29 739.043,333.657 790.872,339.234"/>
<polygon fill="#2b6229" points="790.224,339.475 790.303,338.339 790.299,339.502"/>
<polygon fill="#2c662b" points="780.004,338.253 791.151,339.88 784.399,338.778"/>
<polygon fill="#2c662b" points="784.399,338.779 790.298,339.502 789.824,339.427"/>
<polygon fill="#2c662b" points="791.163,339.885 779.907,338.242 742.391,333.759"/>
<polygon fill="#2c662b" points="791.163,339.885 742.391,333.759 742.051,334.274"/>
<text fill="#000000" x="788.176" y="342.623" font-size="12" text-anchor="start" baseline-shift="0" font-family="Helvetica">Y</text>
<polygon fill="#2b6229" points="790.298,338.336 790.042,342.062 790.298,338.336"/>
<polygon fill="#2b6229" points="790.042,342.062 790.298,338.336 790.303,338.339"/>
<polygon fill="#2b6229" points="790.042,342.062 790.303,338.339 790.045,342.063"/>
<polygon fill="#2b6229" points="790.042,342.063 790.298,338.336 790.042,342.062"/>
<polygon fill="#2b6229" points="790.042,342.063 790.298,338.336 790.042,342.062"/>
<polygon fill="#2b6229" points="790.298,338.336 790.042,342.062 790.042,342.062"/>
<polygon fill="#2b6229" points="790.042,342.063 790.298,338.336 790.298,338.336"/>
<polygon fill="#071007" points="790.22,339.474 790.221,339.468 790.298,338.336"/>
<polygon fill="#658c28" points="785.274,337.612 785.768,336.64 735.286,330.716"/>
<polygon fill="#41953f" points="780.511,335.974 779.798,335.499 737.642,329.263"/>
<polygon fill="#41953f" points="775.739,332.8 734.484,328.01 775.751,332.807"/>
<polygon fill="#41953f" points="775.751,332.807 734.484,328.01 775.924,332.923"/>
<polygon fill="#41953f" points="779.798,335.499 779.772,335.482 737.642,329.263"/>
<polygon fill="#41953f" points="779.772,335.482 779.435,335.258 734.484,328.01"/>
<polygon fill="#41953f" points="776.484,333.295 734.484,328.01 779.435,335.258"/>
<polygon fill="#41953f" points="779.772,335.482 734.484,328.01 737.642,329.263"/>
<polygon fill="#41953f" points="775.646,332.738 734.484,328.01 775.739,332.8"/>
<polygon fill="#41953f" points="780.511,335.974 737.642,329.263 743.758,331.69"/>
<polygon fill="#41953f" points="775.925,332.923 734.484,328.01 776.484,333.295"/>
<polygon fill="#41953f" points="775.646,332.738 733.727,327.709 734.484,328.01"/>
<polygon fill="#41953f" points="780.565,336.009 780.511,335.974 743.758,331.69"/>
<polygon fill="#2c662b" points="780.564,336.009 743.482,332.107 781.029,336.167"/>
<polygon fill="#2c662b" points="781.029,336.167 743.482,332.107 781.066,336.18"/>
<polygon fill="#2c662b" points="784.438,337.328 783.296,336.939 743.482,332.107"/>
<polygon fill="#2c662b" points="783.296,336.939 781.066,336.18 743.482,332.107"/>
<polygon fill="#2c662b" points="780.004,338.253 784.399,338.778 743.482,332.107"/>
<polygon fill="#2c662b" points="780.564,336.009 743.758,331.69 743.482,332.107"/>
<polygon fill="#2c662b" points="784.438,337.328 743.482,332.107 786.682,338.092"/>
<polygon fill="#2c662b" points="784.399,338.779 789.824,339.427 743.482,332.107"/>
<polygon fill="#2c662b" points="789.825,339.427 790.23,339.475 786.682,338.092"/>
<polygon fill="#2c662b" points="789.825,339.427 786.682,338.092 743.482,332.107"/>
<polygon fill="#2c662b" points="790.241,339.477 788.546,338.726 786.682,338.092"/>
<polygon fill="#2c662b" points="790.241,339.477 786.682,338.092 790.23,339.475"/>
<polygon fill="#2c662b" points="780.004,338.253 743.482,332.107 742.989,332.853"/>
<polygon fill="#729e2d" points="781.967,343.185 786.729,339.229 743.251,332.952"/>
<polygon fill="#658c28" points="744.46,332.864 782.191,341.699 783.523,341.061"/>
<polygon fill="#658c28" points="744.46,332.864 783.523,341.061 785.274,337.612"/>
<polygon fill="#658c28" points="743.088,332.705 780.874,342.33 744.46,332.864"/>
<polygon fill="#658c28" points="780.874,342.33 782.192,341.699 744.46,332.864"/>
<polygon fill="#1e451d" points="783.461,341.081 780.883,342.649 781.227,342.153"/>
<polygon fill="#658c28" points="780.874,342.33 783.092,341.909 782.192,341.699"/>
<polygon fill="#1e451d" points="781.539,341.658 780.861,341.988 780.861,341.982"/>
<polygon fill="#1d431c" points="781.384,341.748 780.861,341.982 781.032,341.953"/>
<polygon fill="#1d431c" points="781.538,341.658 780.861,341.982 781.477,341.694"/>
<polygon fill="#1d431c" points="781.384,341.748 781.388,341.745 780.861,341.982"/>
<polygon fill="#1d431c" points="781.388,341.745 781.477,341.694 780.861,341.982"/>
<polygon fill="#1d431c" points="781.384,341.748 780.861,341.982 781.383,341.748"/>
<polygon fill="#1e451d" points="781.539,341.658 781.539,341.658 780.861,341.982"/>
<polygon fill="#2b6229" points="790.29,342.206 790.304,338.339 790.291,342.207"/>
<polygon fill="#2b6229" points="790.29,342.206 790.303,338.339 790.304,338.339"/>
<polygon fill="#2b6229" points="790.291,342.206 790.304,338.339 790.316,342.221"/>
<polygon fill="#2b6229" points="790.349,342.241 790.367,338.367 790.374,338.371"/>
<polygon fill="#2b6229" points="790.352,342.244 790.374,338.371 790.71,342.452"/>
<polygon fill="#2b6229" points="790.349,342.241 790.374,338.371 790.352,342.243"/>
<polygon fill="#2b6229" points="790.367,338.367 790.349,342.241 790.316,342.222"/>
<polygon fill="#2b6229" points="790.367,338.367 790.316,342.222 790.304,338.339"/>
<polygon fill="#2b6229" points="791.28,338.806 790.71,342.452 790.374,338.371"/>
<polygon fill="#071007" points="790.298,338.336 790.066,341.76 790.361,338.091"/>
<polygon fill="#2c662b" points="790.263,339.31 788.546,338.726 790.221,339.468"/>
<polygon fill="#658c28" points="784.334,340.663 784.625,338.89 783.532,341.043"/>
<polygon fill="#2b6229" points="790.352,342.244 791.07,346.834 790.328,346.447"/>
<polygon fill="#060e06" points="790.612,338.923 790.758,337.659 790.618,338.205"/>
<polygon fill="#2c662b" points="790.263,339.31 792.111,339.131 790.39,338.833"/>
<polygon fill="#071007" points="790.361,338.091 790.042,342.062 789.761,346.152"/>
<polygon fill="#071007" points="789.987,343.786 790.491,337.589 790.361,338.091"/>
<polygon fill="#071007" points="789.987,343.786 790.361,338.091 789.761,346.152"/>
<polygon fill="#2c662b" points="790.263,339.31 790.39,338.833 787.275,338.293"/>
<polygon fill="#306e2e" points="787.246,340.628 791.982,338.128 791.999,338.194"/>
<polygon fill="#306e2e" points="787.233,340.581 791.964,338.06 791.982,338.127"/>
<polygon fill="#306e2e" points="787.233,340.581 791.982,338.127 787.233,340.581"/>
<polygon fill="#1e451d" points="790.683,337.725 791.543,337.866 790.442,338.325"/>
<polygon fill="#2c662b" points="790.684,338.646 792.358,338.878 790.725,338.49"/>
<polygon fill="#729e2d" points="790.089,342.533 792.546,344.31 792.758,340.135"/>
<polygon fill="#1e451d" points="790.836,337.63 790.683,337.725 790.579,337.708"/>
<polygon fill="#000100" points="790.706,338.981 790.649,339.13 791.397,338.729"/>
<polygon fill="#060e06" points="789.859,345.85 790.118,344.897 790.223,343.986"/>
<polygon fill="#060e06" points="789.859,345.85 790.223,343.986 789.874,345.711"/>
<polygon fill="#000100" points="790.706,338.981 790.414,339.256 790.649,339.13"/>
<polygon fill="#000100" points="790.716,338.956 790.495,339.058 790.706,338.981"/>
<polygon fill="#658c28" points="790.553,338.19 792.159,337.39 790.616,337.209"/>
<polygon fill="#071007" points="789.885,345.046 790.408,340.359 790.63,337.05"/>
<polygon fill="#071007" points="789.885,345.046 790.63,337.05 789.987,343.786"/>
<polygon fill="#071007" points="789.987,343.786 790.63,337.05 790.491,337.589"/>
<polygon fill="#1e451d" points="789.654,338.134 790.579,337.706 789.664,338.185"/>
<polygon fill="#1e451d" points="789.888,338.008 790.579,337.706 789.654,338.134"/>
<polygon fill="#658c28" points="785.442,337.632 785.768,336.64 785.274,337.612"/>
<polygon fill="#658c28" points="790.553,338.19 790.616,337.209 785.768,336.64"/>
<polygon fill="#658c28" points="785.768,336.64 785.442,337.632 790.494,338.22"/>
<polygon fill="#658c28" points="785.768,336.64 790.494,338.22 790.553,338.19"/>
<polygon fill="#2c662b" points="786.682,338.092 790.551,338.225 785.049,337.536"/>
<polygon fill="#658c28" points="784.464,340.609 789.646,338.121 785.442,337.632"/>
<polygon fill="#658c28" points="785.442,337.632 785.274,337.612 784.625,338.89"/>
<polygon fill="#658c28" points="784.625,338.89 784.333,340.673 784.464,340.609"/>
<polygon fill="#658c28" points="784.625,338.89 784.464,340.609 785.442,337.632"/>
<polygon fill="#1e451d" points="789.654,338.134 789.664,338.185 785.383,340.424"/>
<polygon fill="#1e451d" points="789.654,338.134 785.383,340.424 788.198,338.809"/>
<polygon fill="#658c28" points="784.464,340.609 784.222,341.346 790.494,338.22"/>
<polygon fill="#658c28" points="784.464,340.609 790.494,338.22 789.646,338.121"/>
<polygon fill="#658c28" points="784.333,340.673 784.222,341.346 784.464,340.609"/>
<polygon fill="#658c28" points="783.077,341.938 792.208,337.537 792.159,337.39"/>
<polygon fill="#668d28" points="782.942,342.242 782.688,342.808 792.552,345.44"/>
<polygon fill="#668d28" points="782.942,342.242 792.552,345.44 792.359,338.005"/>
<polygon fill="#306f2e" points="790.886,338.085 792.483,336.843 790.964,337.625"/>
<polygon fill="#060e06" points="790.979,337.463 790.221,344.006 790.143,344.797"/>
<polygon fill="#060e06" points="790.98,337.471 790.143,344.797 790.25,344.377"/>
<polygon fill="#2c662b" points="789.646,338.085 788.841,337.966 788.711,337.994"/>
<polygon fill="#2c662b" points="789.619,337.942 789.064,337.917 789.628,337.989"/>
<polygon fill="#2c662b" points="789.593,337.802 789.064,337.917 789.619,337.942"/>
<polygon fill="#2c662b" points="789.63,338.001 788.842,337.966 789.64,338.051"/>
<polygon fill="#2c662b" points="789.64,338.051 788.842,337.966 789.645,338.082"/>
<polygon fill="#2c662b" points="789.63,338.001 789.064,337.917 788.842,337.966"/>
<polygon fill="#2c662b" points="789.646,338.085 788.711,337.994 789.651,338.112"/>
<polygon fill="#2c662b" points="790.854,337.996 790.875,337.913 789.611,337.798"/>
<polygon fill="#2c662b" points="790.854,337.996 789.619,337.942 789.628,337.989"/>
<polygon fill="#2c662b" points="790.854,337.996 789.628,337.989 790.816,338.141"/>
<polygon fill="#2c662b" points="790.889,337.861 790.961,337.586 789.884,337.739"/>
<polygon fill="#2c662b" points="790.875,337.913 790.889,337.861 789.884,337.739"/>
<polygon fill="#2c662b" points="790.875,337.913 789.884,337.739 789.611,337.798"/>
<polygon fill="#2c662b" points="790.961,337.586 790.984,337.5 789.884,337.739"/>
<polygon fill="#2c662b" points="789.611,337.798 789.619,337.942 790.854,337.996"/>
<polygon fill="#2c662b" points="789.63,338.001 789.64,338.051 790.807,338.176"/>
<polygon fill="#2c662b" points="789.646,338.085 789.651,338.112 790.786,338.254"/>
<polygon fill="#2c662b" points="790.807,338.176 789.64,338.051 789.645,338.082"/>
<polygon fill="#2c662b" points="790.816,338.141 789.628,337.989 789.63,338.001"/>
<polygon fill="#2c662b" points="790.816,338.141 789.63,338.001 790.807,338.176"/>
<polygon fill="#2c662b" points="790.807,338.176 789.645,338.082 790.788,338.248"/>
<polygon fill="#071007" points="790.495,339.058 790.537,338.954 790.636,338.314"/>
<polygon fill="#071007" points="790.636,338.314 790.551,338.225 790.495,339.058"/>
<polygon fill="#071007" points="790.633,337.917 790.636,338.314 790.714,337.617"/>
<polygon fill="#071007" points="790.743,337.621 790.717,337.604 790.683,338.007"/>
<polygon fill="#071007" points="790.683,338.007 790.717,337.604 790.714,337.617"/>
<polygon fill="#000100" points="790.75,338.866 787.961,340.201 787.667,340.385"/>
<polygon fill="#000100" points="790.718,338.95 790.725,338.932 787.667,340.385"/>
<polygon fill="#000100" points="790.718,338.95 787.667,340.385 787.365,340.574"/>
<polygon fill="#000100" points="790.725,338.932 790.75,338.866 787.667,340.385"/>
<polygon fill="#000100" points="790.75,338.866 790.757,338.848 787.961,340.201"/>
<polygon fill="#071007" points="790.495,339.058 790.475,339.362 790.537,338.954"/>
<polygon fill="#306f2e" points="790.758,338.846 790.758,338.841 787.97,340.192"/>
<polygon fill="#306f2e" points="788.635,339.459 790.809,338.544 790.81,338.536"/>
<polygon fill="#306f2e" points="788.635,339.459 790.81,338.536 788.661,339.431"/>
<polygon fill="#306f2e" points="788.634,339.461 790.808,338.545 790.808,338.545"/>
<polygon fill="#306f2e" points="788.634,339.461 790.808,338.545 788.635,339.459"/>
<polygon fill="#306f2e" points="790.808,338.545 790.809,338.544 788.635,339.459"/>
<polygon fill="#306f2e" points="788.661,339.431 790.81,338.536 790.81,338.535"/>
<polygon fill="#306f2e" points="788.661,339.431 790.81,338.535 788.663,339.429"/>
<polygon fill="#306f2e" points="790.81,338.535 790.81,338.534 788.663,339.429"/>
<polygon fill="#306f2e" points="788.53,339.575 790.791,338.649 790.796,338.615"/>
<polygon fill="#306f2e" points="788.53,339.575 790.796,338.615 788.634,339.461"/>
<polygon fill="#306f2e" points="790.977,337.55 790.98,337.529 789.906,338.061"/>
<polygon fill="#306f2e" points="790.98,337.529 790.984,337.507 789.962,337.999"/>
<polygon fill="#306f2e" points="790.98,337.529 789.962,337.999 789.906,338.061"/>
<polygon fill="#306f2e" points="788.663,339.429 790.81,338.534 790.886,338.085"/>
<polygon fill="#306f2e" points="788.663,339.429 790.886,338.085 789.72,338.266"/>
<polygon fill="#306f2e" points="790.886,338.085 790.964,337.625 789.72,338.266"/>
<polygon fill="#306f2e" points="789.893,338.075 790.976,337.555 789.906,338.061"/>
<polygon fill="#306f2e" points="790.796,338.615 790.808,338.545 788.634,339.461"/>
<polygon fill="#306f2e" points="789.72,338.265 790.964,337.625 790.975,337.56"/>
<polygon fill="#306f2e" points="789.72,338.265 790.975,337.56 789.893,338.076"/>
<polygon fill="#306f2e" points="789.72,338.266 790.964,337.625 790.964,337.625"/>
<polygon fill="#306f2e" points="789.72,338.266 790.964,337.625 789.72,338.265"/>
<polygon fill="#306f2e" points="790.964,337.625 790.964,337.625 789.72,338.265"/>
<polygon fill="#306f2e" points="790.762,338.819 787.991,340.169 787.969,340.192"/>
<polygon fill="#306f2e" points="790.761,338.824 787.969,340.192 790.758,338.841"/>
<polygon fill="#306f2e" points="790.791,338.649 788.53,339.575 788.508,339.599"/>
<polygon fill="#306f2e" points="790.791,338.649 788.508,339.599 790.79,338.656"/>
<polygon fill="#306f2e" points="790.79,338.656 788.508,339.599 790.787,338.671"/>
<polygon fill="#306f2e" points="787.991,340.169 790.762,338.819 790.787,338.671"/>
<polygon fill="#306f2e" points="787.991,340.169 790.787,338.671 788.508,339.599"/>
<polygon fill="#306f2e" points="790.757,338.848 787.961,340.201 787.961,340.201"/>
<polygon fill="#306f2e" points="790.757,338.848 787.961,340.201 790.757,338.848"/>
<polygon fill="#306f2e" points="790.757,338.848 787.961,340.201 790.757,338.848"/>
<polygon fill="#306f2e" points="790.757,338.847 787.964,340.198 787.964,340.199"/>
<polygon fill="#306f2e" points="790.757,338.847 787.964,340.199 790.757,338.847"/>
<polygon fill="#306f2e" points="790.757,338.847 787.964,340.199 790.757,338.847"/>
<polygon fill="#306f2e" points="787.961,340.201 790.757,338.848 790.757,338.847"/>
<polygon fill="#306f2e" points="787.961,340.201 790.757,338.847 787.964,340.199"/>
<polygon fill="#306f2e" points="787.964,340.199 790.757,338.847 790.758,338.846"/>
<polygon fill="#306f2e" points="787.964,340.199 790.758,338.846 787.97,340.192"/>
<polygon fill="#306f2e" points="790.976,337.555 790.977,337.55 789.906,338.061"/>
<polygon fill="#071007" points="790.636,338.314 790.11,344.788 790.683,338.007"/>
<polygon fill="#071007" points="790.683,338.007 790.11,344.788 790.747,337.641"/>
<polygon fill="#071007" points="790.683,338.007 790.747,337.641 790.743,337.621"/>
<polygon fill="#071007" points="790.747,337.641 790.11,344.788 790.251,344.236"/>
<polygon fill="#071007" points="790.747,337.641 790.251,344.236 790.76,337.703"/>
<polygon fill="#071007" points="790.475,339.362 790.408,340.359 790.636,338.314"/>
<polygon fill="#071007" points="790.764,337.72 790.76,337.703 790.251,344.236"/>
<polygon fill="#071007" points="790.779,337.794 790.764,337.72 790.251,344.236"/>
<polygon fill="#071007" points="790.779,337.794 790.251,344.236 790.385,343.714"/>
<polygon fill="#071007" points="790.781,337.802 790.781,337.801 790.385,343.714"/>
<polygon fill="#071007" points="790.781,337.802 790.385,343.714 790.386,343.709"/>
<polygon fill="#071007" points="790.78,337.799 790.385,343.714 790.781,337.801"/>
<polygon fill="#071007" points="790.636,338.314 790.408,340.359 790.11,344.788"/>
<polygon fill="#2f6c2d" points="790.781,337.802 790.386,343.71 790.815,337.794"/>
<polygon fill="#2f6c2d" points="790.815,337.794 790.386,343.71 791.905,339.937"/>
<polygon fill="#2f6c2d" points="790.815,337.794 791.905,339.937 791.353,337.668"/>
<polygon fill="#071007" points="790.781,337.802 790.781,337.802 790.386,343.709"/>
<polygon fill="#2f6c2d" points="791.353,337.668 791.905,339.937 792.033,337.509"/>
<polygon fill="#2f6c2d" points="791.711,343.596 791.905,339.937 790.386,343.71"/>
<polygon fill="#1e451d" points="787.98,338.738 781.581,341.645 788.401,338.392"/>
<polygon fill="#306f2e" points="789.906,338.061 789.962,337.999 782.107,341.782"/>
<polygon fill="#306f2e" points="788.634,339.461 782.384,342.092 788.53,339.575"/>
<polygon fill="#306f2e" points="788.661,339.431 782.384,342.092 788.635,339.459"/>
<polygon fill="#306f2e" points="788.661,339.431 782.354,342.058 782.384,342.092"/>
<polygon fill="#306f2e" points="789.969,337.991 782.096,341.77 782.107,341.782"/>
<polygon fill="#306f2e" points="789.969,337.991 782.107,341.782 789.962,337.999"/>
<polygon fill="#306f2e" points="789.963,337.999 782.107,341.782 789.962,337.999"/>
<polygon fill="#306f2e" points="788.508,339.599 782.384,342.092 782.887,342.654"/>
<polygon fill="#306f2e" points="789.72,338.266 782.354,342.058 788.663,339.429"/>
<polygon fill="#306f2e" points="789.906,338.061 782.107,341.782 789.893,338.075"/>
<polygon fill="#306f2e" points="789.893,338.076 782.107,341.782 782.354,342.058"/>
<polygon fill="#306f2e" points="789.893,338.076 782.354,342.058 789.72,338.265"/>
<polygon fill="#306f2e" points="789.72,338.265 782.354,342.058 789.72,338.266"/>
<polygon fill="#306f2e" points="788.53,339.575 782.384,342.092 788.508,339.599"/>
<polygon fill="#306f2e" points="788.663,339.429 782.354,342.058 788.661,339.431"/>
<polygon fill="#000100" points="785.001,341.719 782.889,342.656 783.453,342.468"/>
<polygon fill="#000100" points="783.453,342.469 782.889,342.656 782.73,342.819"/>
<polygon fill="#000100" points="785.001,341.719 787.365,340.574 787.667,340.385"/>
<polygon fill="#000100" points="785.001,341.719 787.667,340.385 782.889,342.656"/>
<polygon fill="#000100" points="787.667,340.385 787.961,340.201 782.889,342.656"/>
<polygon fill="#306f2e" points="787.964,340.199 782.889,342.656 787.961,340.201"/>
<polygon fill="#306f2e" points="787.991,340.169 782.887,342.654 787.969,340.192"/>
<polygon fill="#306f2e" points="788.508,339.599 782.887,342.654 787.991,340.169"/>
<polygon fill="#306f2e" points="787.97,340.192 782.887,342.654 787.964,340.199"/>
<polygon fill="#306f2e" points="787.964,340.198 782.887,342.654 787.964,340.199"/>
<polygon fill="#306f2e" points="787.964,340.199 782.887,342.654 782.889,342.656"/>
<polygon fill="#306f2e" points="787.961,340.201 782.889,342.656 787.961,340.201"/>
<polygon fill="#1d431c" points="781.384,341.748 781.032,341.953 781.288,341.909"/>
<polygon fill="#1d431c" points="781.384,341.748 781.288,341.909 792.473,336.78"/>
<polygon fill="#1d431c" points="791.468,336.905 781.477,341.694 791.865,336.829"/>
<polygon fill="#1d431c" points="781.384,341.748 792.473,336.78 792.46,336.773"/>
<polygon fill="#1d431c" points="781.384,341.748 792.46,336.773 781.388,341.745"/>
<polygon fill="#1d431c" points="791.468,336.905 781.538,341.658 781.477,341.694"/>
<polygon fill="#1d431c" points="781.388,341.745 791.865,336.829 781.477,341.694"/>
<polygon fill="#1d431c" points="792.477,336.781 792.476,336.781 781.288,341.909"/>
<polygon fill="#1d431c" points="792.477,336.781 781.288,341.909 782.095,341.77"/>
<polygon fill="#1d431c" points="782.096,341.769 792.487,336.783 792.487,336.783"/>
<polygon fill="#1d431c" points="782.096,341.769 792.487,336.783 782.095,341.77"/>
<polygon fill="#1d431c" points="792.483,336.784 782.095,341.77 792.487,336.783"/>
<polygon fill="#1e451d" points="781.539,341.658 791.468,336.905 791.468,336.905"/>
<polygon fill="#1d431c" points="781.388,341.745 792.46,336.773 791.865,336.829"/>
<polygon fill="#316f2f" points="791.626,337.345 792.08,337.118 791.175,336.22"/>
<polygon fill="#316f2f" points="791.743,337.321 792.08,337.118 791.626,337.345"/>
<polygon fill="#2c662b" points="791.055,337.252 790.814,337.235 791.053,337.259"/>
<polygon fill="#2c662b" points="791.052,337.262 791.052,337.262 790.813,337.237"/>
<polygon fill="#2c662b" points="791.052,337.262 791.052,337.262 790.813,337.236"/>
<polygon fill="#2c662b" points="791.052,337.262 790.813,337.236 790.813,337.237"/>
<polygon fill="#2c662b" points="791.052,337.262 791.052,337.262 790.814,337.236"/>
<polygon fill="#2c662b" points="791.052,337.262 790.814,337.236 790.813,337.236"/>
<polygon fill="#2c662b" points="791.055,337.252 790.816,337.226 790.814,337.235"/>
<polygon fill="#2c662b" points="791.053,337.259 790.814,337.235 791.052,337.261"/>
<polygon fill="#2c662b" points="790.983,337.5 790.791,337.32 790.729,337.555"/>
<polygon fill="#41953f" points="790.928,337.146 790.912,337.154 791.897,337.289"/>
<polygon fill="#41953f" points="790.912,337.154 791.869,337.298 791.897,337.289"/>
<polygon fill="#2f6c2d" points="790.945,335.995 792.033,337.509 792.122,335.834"/>
<polygon fill="#2f6c2d" points="790.901,336.001 790.781,337.802 790.815,337.794"/>
<polygon fill="#2f6c2d" points="790.901,336.001 790.815,337.794 790.945,335.995"/>
<polygon fill="#2f6c2d" points="790.815,337.794 791.353,337.668 790.945,335.995"/>
<polygon fill="#2f6c2d" points="790.945,335.995 791.353,337.668 792.033,337.509"/>
<polygon fill="#41953f" points="790.999,337.106 791.16,337.017 790.857,336.972"/>
<polygon fill="#41953f" points="791.767,335.1 791.164,335.015 791.795,335.222"/>
<polygon fill="#41953f" points="791.145,335.14 791.795,335.222 791.164,335.015"/>
<polygon fill="#41953f" points="790.949,337.134 790.835,337.117 790.832,337.132"/>
<polygon fill="#41953f" points="790.949,337.134 790.832,337.132 790.93,337.145"/>
<polygon fill="#41953f" points="790.93,337.145 790.832,337.132 790.928,337.146"/>
<polygon fill="#41953f" points="790.835,337.116 790.951,337.133 790.97,337.122"/>
<polygon fill="#41953f" points="790.835,337.116 790.97,337.122 790.837,337.101"/>
<polygon fill="#41953f" points="791.145,335.14 791.132,335.224 791.795,335.222"/>
<polygon fill="#41953f" points="790.976,337.119 790.999,337.106 790.838,337.097"/>
<polygon fill="#41953f" points="790.999,337.106 790.857,336.972 790.838,337.097"/>
<polygon fill="#41953f" points="791.16,337.017 792.086,336.506 791.795,335.222"/>
<polygon fill="#41953f" points="791.16,337.017 791.795,335.222 790.857,336.972"/>
<polygon fill="#41953f" points="790.857,336.972 791.795,335.222 791.132,335.224"/>
<polygon fill="#41953f" points="790.859,337.184 790.825,337.18 790.821,337.205"/>
<polygon fill="#41953f" points="790.928,337.146 790.832,337.132 790.831,337.143"/>
<polygon fill="#41953f" points="790.928,337.146 790.831,337.143 790.912,337.154"/>
<polygon fill="#41953f" points="790.912,337.154 790.831,337.143 790.911,337.155"/>
<polygon fill="#41953f" points="790.825,337.176 790.864,337.181 790.911,337.155"/>
<polygon fill="#41953f" points="790.825,337.176 790.911,337.155 790.831,337.143"/>
<polygon fill="#41953f" points="791.767,335.1 791.176,334.94 791.164,335.015"/>
<polygon fill="#071007" points="790.9,336.006 790.781,337.801 790.901,336.001"/>
<polygon fill="#071007" points="790.723,337.53 790.747,337.641 790.889,336.05"/>
<polygon fill="#071007" points="790.747,337.641 790.76,337.703 790.889,336.05"/>
<polygon fill="#071007" points="790.724,337.53 790.889,336.05 790.63,337.05"/>
<polygon fill="#071007" points="790.78,337.799 790.9,336.006 790.898,336.015"/>
<polygon fill="#071007" points="790.779,337.794 790.898,336.015 790.764,337.72"/>
<polygon fill="#071007" points="790.781,337.802 790.901,336 790.901,336.001"/>
<polygon fill="#071007" points="790.781,337.802 790.901,336.001 790.781,337.802"/>
<polygon fill="#071007" points="790.781,337.802 790.901,336.001 790.781,337.801"/>
<polygon fill="#071007" points="790.9,336.006 790.78,337.799 790.781,337.801"/>
<polygon fill="#071007" points="790.78,337.799 790.898,336.015 790.779,337.794"/>
<polygon fill="#41953f" points="788.99,334.347 775.751,332.807 775.924,332.923"/>
<polygon fill="#41953f" points="775.646,332.738 775.739,332.8 788.935,334.332"/>
<polygon fill="#41953f" points="775.739,332.8 775.751,332.807 788.991,334.347"/>
<polygon fill="#41953f" points="775.739,332.8 788.991,334.347 788.935,334.332"/>
<polygon fill="#41953f" points="791.176,334.94 789.812,334.57 791.164,335.015"/>
<polygon fill="#41953f" points="789.812,334.57 775.925,332.923 776.484,333.295"/>
<polygon fill="#41953f" points="776.484,333.295 791.145,335.14 791.164,335.015"/>
<polygon fill="#41953f" points="776.484,333.295 791.164,335.015 789.812,334.57"/>
<polygon fill="#41953f" points="788.99,334.347 775.924,332.923 789.812,334.57"/>
<polygon fill="#41953f" points="790.835,337.117 779.798,335.499 790.832,337.132"/>
<polygon fill="#41953f" points="790.835,337.116 779.772,335.482 779.798,335.499"/>
<polygon fill="#41953f" points="790.831,337.143 780.511,335.974 790.825,337.176"/>
<polygon fill="#41953f" points="790.838,337.096 779.435,335.258 790.837,337.101"/>
<polygon fill="#41953f" points="790.837,337.101 779.435,335.258 779.772,335.482"/>
<polygon fill="#41953f" points="790.837,337.101 779.772,335.482 790.835,337.116"/>
<polygon fill="#41953f" points="791.145,335.14 776.484,333.295 779.435,335.258"/>
<polygon fill="#41953f" points="791.145,335.14 779.435,335.258 791.132,335.224"/>
<polygon fill="#41953f" points="790.838,337.097 790.857,336.972 779.435,335.258"/>
<polygon fill="#41953f" points="790.857,336.972 791.132,335.224 779.435,335.258"/>
<polygon fill="#41953f" points="790.825,337.18 780.565,336.009 790.82,337.213"/>
<polygon fill="#41953f" points="790.825,337.177 780.511,335.974 780.565,336.009"/>
<polygon fill="#41953f" points="790.825,337.177 780.565,336.009 790.825,337.18"/>
<polygon fill="#41953f" points="790.832,337.132 779.798,335.499 790.831,337.143"/>
<polygon fill="#41953f" points="790.831,337.143 779.798,335.499 780.511,335.974"/>
<polygon fill="#41953f" points="790.835,337.116 779.798,335.499 790.835,337.117"/>
<polygon fill="#2c662b" points="788.842,337.966 789.064,337.917 784.438,337.328"/>
<polygon fill="#2c662b" points="790.817,337.222 790.82,337.213 780.564,336.009"/>
<polygon fill="#2c662b" points="790.817,337.222 780.564,336.009 781.029,336.167"/>
<polygon fill="#2c662b" points="790.813,337.236 781.029,336.167 781.066,336.18"/>
<polygon fill="#2c662b" points="790.816,337.226 781.029,336.167 790.814,337.235"/>
<polygon fill="#2c662b" points="789.064,337.917 789.611,337.798 784.438,337.328"/>
<polygon fill="#2c662b" points="785.049,337.536 788.711,337.994 788.841,337.966"/>
<polygon fill="#2c662b" points="789.611,337.798 783.296,336.939 784.438,337.328"/>
<polygon fill="#2c662b" points="790.729,337.555 790.791,337.32 783.296,336.939"/>
<polygon fill="#2c662b" points="790.729,337.555 783.296,336.939 789.884,337.739"/>
<polygon fill="#2c662b" points="790.813,337.237 781.066,336.18 790.804,337.272"/>
<polygon fill="#2c662b" points="790.804,337.272 781.066,336.18 783.296,336.939"/>
<polygon fill="#2c662b" points="790.804,337.272 783.296,336.939 790.791,337.32"/>
<polygon fill="#2c662b" points="785.049,337.536 788.841,337.966 784.438,337.328"/>
<polygon fill="#2c662b" points="789.611,337.798 789.884,337.739 783.296,336.939"/>
<polygon fill="#142f14" points="792.924,337.527 792.865,346.127 793.086,346.613"/>
<polygon fill="#163215" points="794.234,345.605 794.289,345.72 794.272,344.778"/>
<polygon fill="#163215" points="794.234,345.605 794.246,343.33 794.149,345.427"/>
<polygon fill="#163215" points="793.648,335.617 793.595,344.272 794.123,336.621"/>
<polygon fill="#163215" points="793.595,344.272 793.627,344.34 794.132,337.14"/>
<polygon fill="#163215" points="793.595,344.272 794.132,337.14 794.123,336.621"/>
<polygon fill="#163215" points="793.648,335.617 793.209,343.467 793.595,344.272"/>
<polygon fill="#163215" points="793.627,344.34 794.246,343.33 794.132,337.14"/>
<polygon fill="#163215" points="794.078,345.278 794.149,345.427 794.246,343.33"/>
<polygon fill="#163215" points="794.234,345.605 794.272,344.778 794.246,343.33"/>
<polygon fill="#163215" points="793.627,344.34 794.078,345.278 794.246,343.33"/>
<polygon fill="#40923d" points="793.714,336.151 793.782,336.536 795.042,336.179"/>
<polygon fill="#40923d" points="793.761,335.679 793.641,335.737 793.714,336.151"/>
<polygon fill="#40923d" points="793.761,335.679 793.714,336.151 795.042,336.179"/>
<polygon fill="#40923d" points="795.163,335.836 793.943,335.591 793.761,335.679"/>
<polygon fill="#40923d" points="793.938,337.426 794.527,337.645 795.042,336.179"/>
<polygon fill="#40923d" points="795.163,335.836 793.761,335.679 795.042,336.179"/>
<polygon fill="#40923d" points="793.938,337.426 795.042,336.179 793.782,336.536"/>
<polygon fill="#3c8839" points="794.527,337.645 793.965,337.488 794.462,337.691"/>
<polygon fill="#3c8839" points="794.146,337.911 794.462,337.691 793.965,337.488"/>
<polygon fill="#3c8839" points="794.527,337.645 793.938,337.426 793.965,337.488"/>
<polygon fill="#2f6c2d" points="791.711,343.596 792.603,343.519 793.644,335.617"/>
<polygon fill="#2f6c2d" points="791.711,343.596 793.644,335.617 791.905,339.937"/>
<polygon fill="#2f6c2d" points="791.905,339.937 793.644,335.617 792.126,335.75"/>
<polygon fill="#2f6c2d" points="792.603,343.519 793.206,343.468 793.644,335.617"/>
<polygon fill="#2f6c2d" points="793.206,343.468 793.209,343.467 793.648,335.617"/>
<polygon fill="#2f6c2d" points="793.206,343.468 793.648,335.617 793.644,335.617"/>
<polygon fill="#40923d" points="793.163,335.435 793.167,335.446 793.761,335.679"/>
<polygon fill="#40923d" points="793.163,335.435 793.761,335.679 793.943,335.591"/>
<polygon fill="#40923d" points="793.166,335.446 793.295,335.904 793.761,335.679"/>
<polygon fill="#41953f" points="792.857,336.08 791.795,335.222 792.086,336.506"/>
<polygon fill="#41953f" points="791.795,335.222 793.177,335.396 791.697,334.793"/>
<polygon fill="#41953f" points="793.256,335.86 793.177,335.396 792.857,336.08"/>
<polygon fill="#41953f" points="792.857,336.08 793.177,335.396 791.795,335.222"/>
<polygon fill="#40923d" points="792.933,335.859 792.822,336.132 792.979,335.82"/>
<polygon fill="#40923d" points="792.979,335.82 792.822,336.132 793.295,335.904"/>
<polygon fill="#40923d" points="792.979,335.82 793.295,335.904 793.215,335.617"/>
<polygon fill="#699129" points="774.505,420.5 765.05,477.808 806.502,432.3"/>
<polygon fill="#699129" points="762.098,441.115 765.05,477.808 744.539,470.292"/>
<polygon fill="#699129" points="774.505,420.5 762.098,441.115 765.05,477.808"/>
<polygon fill="#699129" points="806.502,432.3 765.05,477.808 811.621,476.88"/>
<polygon fill="#668d28" points="774.505,420.5 806.502,432.3 798.849,378.799"/>
<polygon fill="#6a932a" points="819.211,555.682 746.986,612.89 823.639,601.662"/>
<polygon fill="#6a932a" points="819.211,555.682 746.986,612.89 765.05,477.808"/>
<polygon fill="#6a932a" points="819.211,555.682 765.05,477.808 811.621,476.88"/>
<polygon fill="#6e982c" points="825.5,631.13 746.986,612.89 823.639,601.662"/>
<polygon fill="#6e982c" points="825.5,631.13 743.532,662.955 746.986,612.89"/>
<polygon fill="#6e982c" points="825.5,631.13 743.532,662.955 826.499,646.951"/>
<polygon fill="#729e2d" points="826.837,660.196 743.532,662.955 826.499,646.951"/>
<polygon fill="#729e2d" points="743.532,662.955 826.837,660.196 827.587,689.601"/>
<polygon fill="#729e2d" points="743.532,662.955 827.587,689.601 745.797,708.942"/>
<polygon fill="#47a144" points="691.579,321.572 685.885,319.604 676.624,320.859"/>
<polygon fill="#327230" points="664.862,322.453 676.575,325.21 676.82,323.834"/>
<polygon fill="#658c28" points="673.64,324.625 670.47,324.257 664.862,322.453"/>
<polygon fill="#658c28" points="673.64,324.625 676.617,324.972 664.862,322.453"/>
<polygon fill="#41953f" points="733.727,327.709 698.899,323.531 734.484,328.01"/>
<polygon fill="#41953f" points="734.484,328.01 698.899,323.531 737.642,329.263"/>
<polygon fill="#41953f" points="737.642,329.263 698.899,323.531 699.151,326.455"/>
<polygon fill="#41953f" points="737.642,329.263 699.151,326.455 743.758,331.69"/>
<polygon fill="#2c662b" points="743.758,331.69 699.151,326.455 743.482,332.107"/>
<polygon fill="#2c662b" points="743.482,332.107 699.151,326.455 742.989,332.853"/>
<polygon fill="#2c662b" points="742.989,332.853 699.151,326.455 698.517,329.296"/>
<polygon fill="#658c28" points="738.003,332.113 698.903,327.564 700.123,331.18"/>
<polygon fill="#658c28" points="733.934,344.67 700.977,333.714 700.123,331.18"/>
<polygon fill="#658c28" points="733.934,344.67 700.123,331.18 759.695,345.925"/>
<polygon fill="#658c28" points="700.977,333.714 733.934,344.67 701.112,334.113"/>
<polygon fill="#658c28" points="772.055,340.244 743.088,332.705 738.003,332.113"/>
<polygon fill="#658c28" points="759.695,345.925 762.428,344.669 738.003,332.113"/>
<polygon fill="#658c28" points="738.003,332.113 700.123,331.18 759.695,345.925"/>
<polygon fill="#658c28" points="762.428,344.669 772.055,340.244 738.003,332.113"/>
<polygon fill="#658c28" points="772.055,340.244 772.274,340.143 743.088,332.705"/>
<polygon fill="#658c28" points="759.695,345.925 757.158,347.091 733.934,344.67"/>
<polygon fill="#668e29" points="751.415,350.424 733.934,344.67 757.158,347.091"/>
<polygon fill="#327230" points="676.82,323.834 676.575,325.21 680.795,326.203"/>
<polygon fill="#327230" points="676.82,323.834 680.795,326.203 700.453,326.564"/>
<polygon fill="#327230" points="680.795,326.203 699.54,330.615 700.453,326.564"/>
<polygon fill="#658c28" points="676.617,324.972 673.64,324.625 700.123,331.18"/>
<polygon fill="#658c28" points="676.617,324.972 700.123,331.18 699.697,329.917"/>
<polygon fill="#658c28" points="700.977,333.714 701.112,334.113 670.47,324.257"/>
<polygon fill="#658c28" points="700.977,333.714 670.47,324.257 673.64,324.625"/>
<polygon fill="#658c28" points="700.977,333.714 673.64,324.625 700.123,331.18"/>
<polygon fill="#668e29" points="751.415,350.424 757.158,347.091 769.679,348.396"/>
<polygon fill="#668e29" points="769.679,348.396 752.616,350.82 751.415,350.424"/>
<polygon fill="#658c28" points="765.558,344.329 764.798,343.579 762.428,344.669"/>
<polygon fill="#658c28" points="759.695,345.925 769.679,348.396 762.428,344.669"/>
<polygon fill="#658c28" points="769.679,348.396 765.558,344.329 762.428,344.669"/>
<polygon fill="#658c28" points="759.695,345.925 769.679,348.396 757.158,347.091"/>
<polygon fill="#658c28" points="774.69,343.336 771.684,343.662 769.679,348.396"/>
<polygon fill="#658c28" points="774.69,343.336 776.662,341.344 773.034,340.477"/>
<polygon fill="#658c28" points="774.69,343.336 773.034,340.477 771.684,343.662"/>
<polygon fill="#658c28" points="776.662,341.344 776.727,341.278 773.087,340.35"/>
<polygon fill="#658c28" points="776.662,341.344 773.087,340.35 773.034,340.477"/>
<polygon fill="#658c28" points="776.662,341.344 781.777,342.565 776.727,341.278"/>
<polygon fill="#658c28" points="773.538,344.498 781.777,342.565 774.69,343.336"/>
<polygon fill="#658c28" points="774.69,343.336 781.777,342.565 776.662,341.344"/>
<polygon fill="#658c28" points="773.538,344.498 775.492,345.594 781.777,342.565"/>
<polygon fill="#1d431c" points="781.288,341.909 775.821,344.781 782.095,341.77"/>
<polygon fill="#1d431c" points="781.288,341.909 774.871,344.849 775.821,344.781"/>
<polygon fill="#1d431c" points="780.861,341.982 774.871,344.849 781.288,341.909"/>
<polygon fill="#306f2e" points="782.384,342.092 775.821,344.781 776.316,345.838"/>
<polygon fill="#306f2e" points="782.384,342.092 782.354,342.058 775.821,344.781"/>
<polygon fill="#306f2e" points="782.096,341.77 775.821,344.781 782.107,341.782"/>
<polygon fill="#306f2e" points="782.384,342.092 776.316,345.838 782.887,342.654"/>
<polygon fill="#306f2e" points="782.354,342.058 782.107,341.782 775.821,344.781"/>
<polygon fill="#000100" points="782.612,342.939 776.316,345.838 775.672,346.557"/>
<polygon fill="#000100" points="782.889,342.656 776.316,345.838 782.612,342.939"/>
<polygon fill="#306f2e" points="782.887,342.654 776.316,345.838 782.889,342.656"/>
<polygon fill="#668d28" points="782.73,342.819 782.425,342.966 785.016,345.266"/>
<polygon fill="#668d28" points="782.73,342.819 785.016,345.266 788.915,344.47"/>
<polygon fill="#668d28" points="776.178,345.992 777.551,346.789 785.016,345.266"/>
<polygon fill="#668d28" points="776.178,345.992 785.016,345.266 782.425,342.966"/>
<polygon fill="#295d27" points="776.481,343.147 773.63,343.358 769.679,348.396"/>
<polygon fill="#658c28" points="771.684,343.662 765.558,344.329 769.679,348.396"/>
<polygon fill="#658c28" points="771.684,343.662 773.034,340.477 772.055,340.244"/>
<polygon fill="#658c28" points="771.684,343.662 772.055,340.244 765.558,344.329"/>
<polygon fill="#658c28" points="765.558,344.329 772.055,340.244 764.798,343.579"/>
<polygon fill="#658c28" points="773.034,340.477 773.087,340.35 772.274,340.143"/>
<polygon fill="#658c28" points="773.034,340.477 772.274,340.143 772.055,340.244"/>
<polygon fill="#3b8839" points="777.968,346.326 776.481,343.147 769.679,348.396"/>
<polygon fill="#668e29" points="769.679,348.396 754.768,351.528 752.616,350.82"/>
<polygon fill="#47a144" points="691.579,321.572 676.624,320.859 664.862,322.453"/>
<polygon fill="#47a144" points="691.579,321.572 664.862,322.453 700.28,324.579"/>
<polygon fill="#47a144" points="700.28,324.579 664.862,322.453 700.453,326.564"/>
<polygon fill="#668e29" points="754.768,351.528 589.508,386.238 627.831,333.61"/>
<polygon fill="#668e29" points="754.768,351.528 627.831,333.61 733.934,344.67"/>
<polygon fill="#658c28" points="664.862,322.453 733.934,344.67 627.831,333.61"/>
<polygon fill="#0c1d0c" points="776.032,348.476 777.968,346.326 769.679,348.396"/>
<circle fill="#000000" cx="769.679" cy="348.396" r="1.5"/>
<circle fill="#bebebe" cx="769.679" cy="348.396" r="2.5"/>
<text fill="#000000" x="779.819" y="404.581" font-size="12" text-anchor="start" baseline-shift="0" font-family="Helvetica">M2</text>
<polygon fill="#668e29" points="745.999,355.573 589.508,386.238 744.094,353.77"/>
<polygon fill="#668e29" points="745.999,355.573 573.843,407.749 589.508,386.238"/>
<polygon fill="#668e29" points="745.999,355.573 760.01,415.155 573.843,407.749"/>
<polygon fill="#668e29" points="745.999,355.573 765.91,374.418 760.01,415.155"/>
<polygon fill="#699129" points="761.864,438.201 746.489,463.341 760.01,415.155"/>
<polygon fill="#699129" points="746.489,463.341 742.659,469.604 573.843,407.749"/>
<polygon fill="#699129" points="746.489,463.341 573.843,407.749 760.01,415.155"/>
<polygon fill="#699129" points="773.024,419.954 760.01,415.155 761.864,438.201"/>
<polygon fill="#668d28" points="788.442,395.384 784.776,391.973 760.01,415.155"/>
<polygon fill="#668d28" points="788.844,395.758 788.442,395.384 773.024,419.954"/>
<polygon fill="#668d28" points="788.442,395.384 760.01,415.155 773.024,419.954"/>
<polygon fill="#668d28" points="765.91,374.418 760.01,415.155 782.288,389.657"/>
<polygon fill="#668d28" points="784.776,391.973 782.288,389.657 760.01,415.155"/>
<circle fill="#000000" cx="760.01" cy="415.155" r="1.5"/>
<circle fill="#bebebe" cx="760.01" cy="415.155" r="2.5"/>
<polygon fill="#6e982c" points="791.294,347.855 792.57,360.3 780.13,349.522"/>
<polygon fill="#2d662b" points="790.094,350.051 786.676,374.61 790.027,349.51"/>
<polygon fill="#2d662b" points="790.027,349.509 786.676,374.61 789.958,348.947"/>
<polygon fill="#3b8839" points="785.944,379.433 785.59,380.863 782.461,381.987"/>
<polygon fill="#2b6229" points="790.276,346.42 787.424,380.203 789.761,346.152"/>
<polygon fill="#668d28" points="794.922,385.526 798.849,378.799 794.9,385.499"/>
<polygon fill="#668d28" points="794.898,385.497 798.849,378.799 794.754,385.325"/>
<polygon fill="#668d28" points="797.044,374.063 792.221,382.298 793.491,383.815"/>
<polygon fill="#668d28" points="798.849,378.799 797.951,372.516 797.044,374.063"/>
<polygon fill="#668d28" points="798.849,378.799 797.044,374.063 793.491,383.815"/>
<polygon fill="#668d28" points="794.754,385.325 798.849,378.799 793.491,383.815"/>
<polygon fill="#668d28" points="795.894,358.136 797.481,369.23 796.829,370.041"/>
<polygon fill="#668d28" points="790.562,365.773 790.401,366.924 796.373,370.609"/>
<polygon fill="#668d28" points="796.373,370.609 790.401,366.924 794.266,373.232"/>
<polygon fill="#668d28" points="790.998,362.628 796.666,370.244 790.579,365.65"/>
<polygon fill="#668d28" points="791.314,360.357 791.381,359.874 796.829,370.041"/>
<polygon fill="#668d28" points="791.381,359.874 791.737,357.308 795.894,358.136"/>
<polygon fill="#668d28" points="790.998,362.628 791.004,362.59 796.666,370.244"/>
<polygon fill="#668d28" points="791.004,362.59 791.011,362.54 796.829,370.041"/>
<polygon fill="#668d28" points="791.004,362.59 796.829,370.041 796.666,370.244"/>
<polygon fill="#668d28" points="791.314,360.357 796.829,370.041 791.011,362.54"/>
<polygon fill="#668d28" points="790.562,365.773 790.576,365.673 796.373,370.609"/>
<polygon fill="#668d28" points="790.576,365.673 790.579,365.65 796.666,370.244"/>
<polygon fill="#668d28" points="790.576,365.673 796.666,370.244 796.373,370.609"/>
<polygon fill="#668d28" points="791.381,359.874 795.894,358.136 796.829,370.041"/>
<polygon fill="#235122" points="793.601,373.988 795.283,375.335 794.247,373.188"/>
<polygon fill="#668d28" points="793.023,380.13 793.424,380.243 797.044,374.063"/>
<polygon fill="#668d28" points="793.061,374.731 797.854,371.841 793.514,374.167"/>
<polygon fill="#668d28" points="793.514,374.167 797.854,371.841 796.373,370.609"/>
<polygon fill="#668d28" points="793.061,374.732 792.623,376.339 797.854,371.841"/>
<polygon fill="#668d28" points="792.624,376.339 792.542,377.921 797.854,371.841"/>
<polygon fill="#668d28" points="797.854,371.841 792.924,380.102 793.023,380.13"/>
<polygon fill="#668d28" points="797.854,371.841 793.023,380.13 797.044,374.063"/>
<polygon fill="#668d28" points="797.951,372.516 797.854,371.841 797.044,374.063"/>
<polygon fill="#668d28" points="792.814,380.071 797.854,371.841 792.555,379.998"/>
<polygon fill="#668d28" points="792.924,380.102 797.854,371.841 792.814,380.071"/>
<polygon fill="#668d28" points="797.854,371.841 792.542,377.921 792.436,379.964"/>
<polygon fill="#668d28" points="797.854,371.841 792.436,379.964 792.555,379.998"/>
<polygon fill="#668d28" points="797.481,369.23 797.854,371.841 796.829,370.041"/>
<polygon fill="#668d28" points="796.829,370.041 797.854,371.841 796.666,370.244"/>
<polygon fill="#668d28" points="796.666,370.244 797.854,371.841 796.373,370.609"/>
<polygon fill="#3b8639" points="788.864,395.434 788.926,395.744 788.966,395.572"/>
<polygon fill="#668d28" points="794.898,385.497 788.719,394.942 788.921,395.629"/>
<polygon fill="#668d28" points="789.821,394.265 794.9,385.499 788.923,395.637"/>
<polygon fill="#668d28" points="794.9,385.499 788.921,395.629 788.923,395.637"/>
<polygon fill="#3b8639" points="788.864,395.434 788.966,395.572 789.032,395.285"/>
<polygon fill="#3b8639" points="788.864,395.434 789.032,395.285 788.761,394.923"/>
<polygon fill="#668d28" points="789.553,353.078 795.357,354.445 789.594,352.461"/>
<polygon fill="#668d28" points="789.594,352.461 795.357,354.445 789.793,349.506"/>
<polygon fill="#668d28" points="789.862,348.483 795.357,354.445 794.107,345.855"/>
<polygon fill="#668d28" points="789.793,349.506 795.357,354.445 789.862,348.483"/>
<polygon fill="#668d28" points="789.376,355.714 795.894,358.136 789.392,355.469"/>
<polygon fill="#668d28" points="789.392,355.469 795.894,358.136 795.357,354.445"/>
<polygon fill="#668d28" points="789.392,355.469 795.357,354.445 789.47,354.305"/>
<polygon fill="#668d28" points="789.47,354.305 795.357,354.445 789.553,353.078"/>
<polygon fill="#668d28" points="789.376,355.714 795.894,358.136 789.301,356.823"/>
<polygon fill="#235122" points="794.247,373.188 793.735,372.124 793.407,373.083"/>
<polygon fill="#235122" points="794.247,373.188 793.407,373.083 793.601,373.988"/>
<polygon fill="#235122" points="793.407,373.083 793.206,373.671 793.601,373.988"/>
<polygon fill="#163215" points="794.139,345.637 794.269,346.574 794.295,346.055"/>
<polygon fill="#163215" points="794.139,345.637 794.295,346.055 794.149,345.427"/>
<polygon fill="#163215" points="794.149,345.427 794.295,346.055 794.289,345.72"/>
<polygon fill="#163215" points="794.139,345.637 794.149,345.427 794.095,345.314"/>
<polygon fill="#235122" points="791.709,372.472 789.796,378.697 792.656,374.482"/>
<polygon fill="#235122" points="791.709,372.472 791.545,372.341 789.796,378.697"/>
<polygon fill="#235122" points="791.67,372.391 791.545,372.341 791.708,372.472"/>
<polygon fill="#235122" points="791.6,372.242 791.545,372.341 791.67,372.391"/>
<polygon fill="#163215" points="791.581,373.455 793.627,344.34 793.595,344.272"/>
<polygon fill="#163215" points="791.584,373.48 791.617,373.808 794.078,345.278"/>
<polygon fill="#163215" points="791.584,373.48 794.078,345.278 793.627,344.34"/>
<polygon fill="#163215" points="791.549,373.135 793.595,344.272 793.209,343.467"/>
<polygon fill="#163215" points="791.549,373.135 791.581,373.455 793.595,344.272"/>
<polygon fill="#163215" points="792.886,372.62 794.095,345.314 794.078,345.278"/>
<polygon fill="#163215" points="792.897,372.643 794.139,345.637 794.095,345.314"/>
<polygon fill="#163215" points="792.897,372.643 794.095,345.314 792.886,372.62"/>
<polygon fill="#163215" points="792.897,372.643 794.269,346.574 794.139,345.637"/>
<polygon fill="#163215" points="792.886,372.62 794.078,345.278 792.882,372.612"/>
<polygon fill="#163215" points="792.897,372.643 792.931,372.714 794.269,346.574"/>
<polygon fill="#163215" points="792.882,372.612 794.078,345.278 791.896,370.568"/>
<polygon fill="#235122" points="792.656,374.482 792.669,374.463 791.709,372.472"/>
<polygon fill="#163215" points="792.565,379.869 791.896,370.568 791.617,373.808"/>
<polygon fill="#163215" points="792.565,379.869 792.882,372.612 791.896,370.568"/>
<polygon fill="#235122" points="792.773,370.13 791.6,372.242 791.67,372.391"/>
<polygon fill="#235122" points="792.669,374.463 793.206,373.671 791.709,372.472"/>
<polygon fill="#235122" points="793.735,372.124 792.773,370.13 793.407,373.083"/>
<polygon fill="#235122" points="792.773,370.13 791.67,372.391 793.407,373.083"/>
<polygon fill="#235122" points="791.67,372.391 791.708,372.472 793.206,373.671"/>
<polygon fill="#235122" points="791.67,372.391 793.206,373.671 793.407,373.083"/>
<polygon fill="#163215" points="791.549,373.135 791.317,377.285 791.581,373.455"/>
<polygon fill="#3b8639" points="788.761,394.923 789.032,395.285 790.718,388.005"/>
<polygon fill="#3b8639" points="788.761,394.923 790.718,388.005 787.41,388.214"/>
<polygon fill="#071007" points="789.761,346.152 787.424,380.203 790.251,344.236"/>
<polygon fill="#071007" points="790.251,344.236 787.424,380.203 788.127,377.495"/>
<polygon fill="#071007" points="790.251,344.236 788.127,377.495 790.385,343.714"/>
<polygon fill="#071007" points="790.385,343.714 788.127,377.495 790.386,343.709"/>
<polygon fill="#060e06" points="789.464,351.709 787.247,372.393 789.46,351.748"/>
<polygon fill="#668d28" points="786.87,371.079 788.308,371.498 788.795,364.303"/>
<polygon fill="#668d28" points="785.779,361.794 786.87,371.079 788.795,364.303"/>
<polygon fill="#668d28" points="789.301,356.823 789.082,360.053 786.222,356.209"/>
<polygon fill="#668d28" points="789.082,360.053 788.795,364.303 785.779,361.794"/>
<polygon fill="#668d28" points="789.082,360.053 785.779,361.794 786.222,356.209"/>
<polygon fill="#668d28" points="785.779,361.794 785.085,370.56 786.87,371.079"/>
<polygon fill="#668d28" points="786.904,346.942 789.793,349.506 789.862,348.483"/>
<polygon fill="#668d28" points="789.553,353.078 789.594,352.461 786.579,351.423"/>
<polygon fill="#668d28" points="789.553,353.078 786.579,351.423 786.511,352.361"/>
<polygon fill="#668d28" points="789.594,352.461 789.793,349.506 786.904,346.942"/>
<polygon fill="#668d28" points="789.594,352.461 786.904,346.942 786.579,351.423"/>
<polygon fill="#668d28" points="789.862,348.483 790.056,345.592 787.016,345.395"/>
<polygon fill="#668d28" points="789.376,355.714 789.301,356.823 786.222,356.209"/>
<polygon fill="#668d28" points="789.376,355.714 786.222,356.209 786.35,354.59"/>
<polygon fill="#668d28" points="786.904,346.942 789.862,348.483 787.016,345.395"/>
<polygon fill="#668d28" points="789.376,355.714 786.376,354.232 786.35,354.59"/>
<polygon fill="#668d28" points="789.392,355.469 789.47,354.305 786.376,354.232"/>
<polygon fill="#668d28" points="789.47,354.305 789.553,353.078 786.511,352.361"/>
<polygon fill="#668d28" points="789.47,354.305 786.511,352.361 786.376,354.232"/>
<polygon fill="#668d28" points="788.915,344.47 787.055,344.849 787.016,345.395"/>
<polygon fill="#668d28" points="787.016,345.395 790.056,345.592 790.11,344.788"/>
<polygon fill="#668d28" points="787.016,345.395 790.11,344.788 788.915,344.47"/>
<polygon fill="#668d28" points="789.376,355.714 789.392,355.469 786.376,354.232"/>
<polygon fill="#316f2f" points="789.46,351.748 789.551,353.107 790.129,345.505"/>
<polygon fill="#060e06" points="789.464,351.709 790.129,345.507 790.036,345.889"/>
<polygon fill="#060e06" points="789.464,351.709 789.46,351.748 790.129,345.505"/>
<polygon fill="#060e06" points="789.464,351.709 790.129,345.505 790.128,345.51"/>
<polygon fill="#668d28" points="784.852,373.492 786.87,371.079 785.085,370.56"/>
<polygon fill="#668d28" points="784.852,373.492 785.847,374.68 786.87,371.079"/>
<polygon fill="#122a12" points="784.927,373.466 784.95,373.487 784.871,373.262"/>
<polygon fill="#122a12" points="784.975,373.638 784.95,373.487 784.927,373.466"/>
<polygon fill="#3c893a" points="788.012,376.466 788.407,373.302 784.95,373.487"/>
<polygon fill="#3c893a" points="788.012,376.466 784.95,373.487 785.939,379.382"/>
<polygon fill="#668d28" points="784.852,373.492 784.337,379.992 785.847,374.68"/>
<polygon fill="#2f6c2d" points="790.386,343.71 788.127,377.495 792.603,343.519"/>
<polygon fill="#2f6c2d" points="792.603,343.519 788.127,377.495 791.317,377.285"/>
<polygon fill="#2f6c2d" points="792.603,343.519 791.317,377.285 793.206,343.468"/>
<polygon fill="#2f6c2d" points="793.206,343.468 791.317,377.285 793.209,343.467"/>
<polygon fill="#668d28" points="787.016,345.395 785.016,345.266 786.904,346.942"/>
<polygon fill="#668d28" points="775.476,349.762 786.511,352.361 786.579,351.423"/>
<polygon fill="#668d28" points="775.476,349.762 786.579,351.423 774.768,347.357"/>
<polygon fill="#668d28" points="786.579,351.423 786.904,346.942 785.016,345.266"/>
<polygon fill="#668d28" points="786.376,354.232 786.511,352.361 775.476,349.762"/>
<polygon fill="#668d28" points="787.055,344.849 785.016,345.266 787.016,345.395"/>
<polygon fill="#668d28" points="786.579,351.423 785.016,345.266 774.768,347.357"/>
<polygon fill="#668d28" points="776.817,354.336 784.517,377.732 785.779,361.794"/>
<polygon fill="#668d28" points="775.736,350.647 786.35,354.59 786.222,356.209"/>
<polygon fill="#668d28" points="775.736,350.647 786.222,356.209 776.817,354.336"/>
<polygon fill="#668d28" points="776.817,354.336 783.599,377.473 784.517,377.732"/>
<polygon fill="#668d28" points="775.736,350.647 786.35,354.59 786.376,354.232"/>
<polygon fill="#668d28" points="775.736,350.647 786.376,354.232 775.476,349.762"/>
<polygon fill="#668d28" points="786.222,356.209 785.779,361.794 776.817,354.336"/>
<polygon fill="#122a12" points="784.871,373.262 784.95,373.487 784.259,369.373"/>
<polygon fill="#122a12" points="784.871,373.262 784.259,369.373 784.038,370.256"/>
<polygon fill="#3c893a" points="784.259,369.373 790.334,373.2 791.211,368.977"/>
<polygon fill="#3c893a" points="790.334,373.2 791.09,373.159 791.926,369.936"/>
<polygon fill="#3c893a" points="790.334,373.2 791.926,369.936 791.211,368.977"/>
<polygon fill="#3c893a" points="784.259,369.373 784.95,373.487 790.334,373.2"/>
<polygon fill="#235122" points="791.926,369.936 791.09,373.159 791.545,372.341"/>
<polygon fill="#235122" points="791.926,369.936 791.545,372.341 792.378,369.312"/>
<polygon fill="#235122" points="791.545,372.341 792.773,370.13 792.378,369.312"/>
<polygon fill="#3b8639" points="787.41,388.214 790.718,388.005 790.815,387.585"/>
<polygon fill="#3b8639" points="787.41,388.214 790.815,387.585 785.689,379.669"/>
<polygon fill="#132d13" points="784.312,374.643 788.926,395.744 785.689,379.669"/>
<polygon fill="#132d13" points="784.312,374.643 782.461,381.987 788.926,395.744"/>
<text fill="#000000" x="759.561" y="354.189" font-size="12" text-anchor="start" baseline-shift="0" font-family="Helvetica">M6</text>
<polygon fill="#668d28" points="769.679,348.396 765.91,374.418 782.288,389.657"/>
<polygon fill="#668d28" points="782.288,389.657 776.817,354.336 769.679,348.396"/>
<polygon fill="#668d28" points="788.923,395.637 788.921,395.629 788.844,395.758"/>
<polygon fill="#668d28" points="788.921,395.629 788.719,394.942 788.442,395.384"/>
<polygon fill="#668d28" points="788.921,395.629 788.442,395.384 788.844,395.758"/>
<polygon fill="#668d28" points="788.719,394.942 787.188,389.716 784.776,391.973"/>
<polygon fill="#668d28" points="786.894,388.713 785.944,385.473 782.288,389.657"/>
<polygon fill="#668d28" points="787.188,389.716 786.894,388.713 784.776,391.973"/>
<polygon fill="#668d28" points="782.288,389.657 785.944,385.473 776.817,354.336"/>
<polygon fill="#668d28" points="786.894,388.713 782.288,389.657 784.776,391.973"/>
<polygon fill="#668d28" points="776.817,354.336 769.679,348.396 775.736,350.647"/>
<polygon fill="#668d28" points="788.719,394.942 784.776,391.973 788.442,395.384"/>
<polygon fill="#668e29" points="745.999,355.573 744.094,353.77 769.679,348.396"/>
<polygon fill="#668e29" points="745.999,355.573 769.679,348.396 765.91,374.418"/>
<polygon fill="#668d28" points="775.476,349.762 769.679,348.396 775.736,350.647"/>
<polygon fill="#668d28" points="774.768,347.357 769.679,348.396 775.476,349.762"/>
<polygon fill="#224d20" points="796.434,378.014 790.815,387.585 788.926,395.744"/>
<polygon fill="#224d20" points="796.434,378.014 788.926,395.744 797.849,380.991"/>
<polygon fill="#668d28" points="773.024,419.954 774.505,420.5 789.821,394.265"/>
<polygon fill="#699129" points="761.864,438.201 762.098,441.115 744.539,470.292"/>
<polygon fill="#699129" points="761.864,438.201 744.539,470.292 746.489,463.341"/>
<polygon fill="#699129" points="746.489,463.341 744.539,470.292 742.659,469.604"/>
<polygon fill="#699129" points="773.024,419.954 761.864,438.201 762.098,441.115"/>
<polygon fill="#699129" points="773.024,419.954 762.098,441.115 774.505,420.5"/>
<polygon fill="#6f992c" points="492.098,520.909 743.532,662.955 466.578,563.566"/>
<polygon fill="#6f992c" points="492.098,520.909 743.532,662.955 746.986,612.89"/>
<polygon fill="#6a932a" points="573.843,407.749 746.986,612.89 765.05,477.808"/>
<polygon fill="#6a932a" points="492.098,520.909 746.986,612.89 573.843,407.749"/>
<circle fill="#000000" cx="573.843" cy="407.749" r="1.5"/>
<circle fill="#bebebe" cx="746.986" cy="612.89" r="2.5"/>
<circle fill="#bebebe" cx="492.098" cy="520.909" r="2.5"/>
<circle fill="#000000" cx="765.05" cy="477.808" r="1.5"/>
<circle fill="#bebebe" cx="573.843" cy="407.749" r="2.5"/>
<circle fill="#bebebe" cx="765.05" cy="477.808" r="2.5"/>
<circle fill="#000000" cx="746.986" cy="612.89" r="1.5"/>
<circle fill="#000000" cx="492.098" cy="520.909" r="1.5"/>
<polygon fill="#47a144" points="700.28,324.579 699.682,317.734 685.885,319.604"/>
<polygon fill="#3c893a" points="791.211,368.977 791.926,369.936 792.19,368.921"/>
<polygon fill="#235122" points="792.378,369.312 792.19,368.921 791.926,369.936"/>
<polygon fill="#3b8639" points="784.515,373.84 785.689,379.669 790.815,387.585"/>
<polygon fill="#3b8639" points="784.515,373.84 790.815,387.585 794.145,373.199"/>
<polygon fill="#224d20" points="796.434,378.014 794.145,373.199 790.815,387.585"/>
<polygon fill="#132d13" points="784.312,374.643 785.689,379.669 784.515,373.84"/>
<polygon fill="#6c952b" points="986.232,600.036 974.284,572.257 972.324,655.376"/>
<polygon fill="#6c952b" points="972.324,655.376 974.284,572.257 959.5,621.296"/>
<circle fill="#000000" cx="972.324" cy="655.376" r="1.5"/>
<circle fill="#000000" cx="974.284" cy="572.257" r="1.5"/>
<circle fill="#bebebe" cx="959.5" cy="621.296" r="2.5"/>
<circle fill="#bebebe" cx="974.284" cy="572.257" r="2.5"/>
<circle fill="#000000" cx="959.5" cy="621.296" r="1.5"/>
<circle fill="#bebebe" cx="972.324" cy="655.376" r="2.5"/>
<polygon fill="#699129" points="921.459,474.694 963.644,541.237 936.058,450.176"/>
<polygon fill="#699129" points="921.459,474.694 963.644,541.237 948.51,583.37"/>
<circle fill="#000000" cx="936.058" cy="450.176" r="1.5"/>
<circle fill="#bebebe" cx="963.644" cy="541.237" r="2.5"/>
<circle fill="#000000" cx="963.644" cy="541.237" r="1.5"/>
<circle fill="#000000" cx="948.51" cy="583.37" r="1.5"/>
<circle fill="#bebebe" cx="921.459" cy="474.694" r="2.5"/>
<circle fill="#bebebe" cx="948.51" cy="583.37" r="2.5"/>
<circle fill="#bebebe" cx="936.058" cy="450.176" r="2.5"/>
<circle fill="#000000" cx="921.459" cy="474.694" r="1.5"/>
<polygon fill="#010201" points="885.309,369.209 886.572,363.439 885.472,365.948"/>
<polygon fill="#010201" points="885.472,365.948 886.572,363.439 885.492,365.542"/>
<polygon fill="#010201" points="885.492,365.542 886.572,363.439 885.532,364.738"/>
<text fill="#000000" x="806.562" y="315.919" font-size="12" text-anchor="start" baseline-shift="0" font-family="Helvetica">Z</text>
<polygon fill="#3e8e3c" points="885.309,369.21 897.405,371.33 886.572,363.439"/>
<polygon fill="#74a12e" points="450.682,603.556 743.532,662.955 466.578,563.566"/>
<polygon fill="#75a12e" points="745.797,708.942 743.532,662.955 450.682,603.556"/>
<circle fill="#bebebe" cx="745.797" cy="708.942" r="2.5"/>
<circle fill="#bebebe" cx="743.532" cy="662.955" r="2.5"/>
<circle fill="#bebebe" cx="450.682" cy="603.556" r="2.5"/>
<circle fill="#000000" cx="450.682" cy="603.556" r="1.5"/>
<circle fill="#bebebe" cx="466.578" cy="563.566" r="2.5"/>
<circle fill="#000000" cx="745.797" cy="708.942" r="1.5"/>
<circle fill="#000000" cx="743.532" cy="662.955" r="1.5"/>
<circle fill="#000000" cx="466.578" cy="563.566" r="1.5"/>
</g>
</svg>
